<svg width="43" height="15" viewBox="0 0 43 15" fill="none" xmlns="http://www.w3.org/2000/svg">
<path d="M5.61599 4.46409H7.74399V6.51209H5.61599V4.46409ZM5.59999 0.112089H7.42399V0.400089C7.42399 0.933423 7.33332 1.42942 7.15199 1.88809C6.98132 2.34676 6.73065 2.76809 6.39999 3.15209C6.06932 3.52542 5.65865 3.86142 5.16799 4.16009C4.67732 4.44809 4.11199 4.69342 3.47199 4.89609C2.84265 5.08809 2.14932 5.22676 1.39199 5.31209L0.671985 3.69609C1.35465 3.62142 1.96265 3.51476 2.49599 3.37609C3.02932 3.22676 3.48799 3.05076 3.87199 2.84809C4.26665 2.63476 4.59199 2.40009 4.84799 2.14409C5.10399 1.87742 5.29065 1.60009 5.40799 1.31209C5.53599 1.01342 5.59999 0.709422 5.59999 0.400089V0.112089ZM5.95199 0.112089H7.75999V0.400089C7.75999 0.709422 7.82399 1.01342 7.95199 1.31209C8.07999 1.60009 8.26665 1.87742 8.51199 2.14409C8.76799 2.40009 9.09332 2.63476 9.48799 2.84809C9.88265 3.05076 10.3413 3.22676 10.864 3.37609C11.3973 3.51476 12.0107 3.62142 12.704 3.69609L11.984 5.31209C11.216 5.22676 10.512 5.08809 9.87199 4.89609C9.24265 4.69342 8.68265 4.44809 8.19199 4.16009C7.71199 3.86142 7.30132 3.52542 6.95999 3.15209C6.62932 2.76809 6.37865 2.34676 6.20799 1.88809C6.03732 1.42942 5.95199 0.933423 5.95199 0.400089V0.112089ZM-1.46031e-05 6.01609H13.408V7.69609H-1.46031e-05V6.01609ZM1.53599 8.44809H11.776V12.2721H3.66399V13.5681H1.55199V10.8001H9.67999V10.0321H1.53599V8.44809ZM1.55199 13.1041H12.176V14.7201H1.55199V13.1041ZM16.2707 0.464089H26.6067V4.88009H18.4467V7.12009H16.2867V3.28009H24.4467V2.14409H16.2707V0.464089ZM16.2867 6.09609H26.9587V7.77609H16.2867V6.09609ZM14.7347 8.86409H28.1427V10.5601H14.7347V8.86409ZM20.3507 9.48809H22.4627V14.8321H20.3507V9.48809ZM37.2615 1.92009H40.2215V3.61609H37.2615V1.92009ZM37.2615 4.76809H40.2215V6.46409H37.2615V4.76809ZM32.8455 0.832089H34.5575V2.54409C34.5575 3.56809 34.4135 4.52809 34.1255 5.42409C33.8375 6.32009 33.3948 7.10409 32.7975 7.77609C32.2002 8.43742 31.4322 8.94409 30.4935 9.29609L29.3575 7.64809C29.9762 7.42409 30.5042 7.13609 30.9415 6.78409C31.3788 6.43209 31.7362 6.03209 32.0135 5.58409C32.2908 5.12542 32.4988 4.64009 32.6375 4.12809C32.7762 3.60542 32.8455 3.07742 32.8455 2.54409V0.832089ZM33.2775 0.832089H34.9895V2.54409C34.9895 3.04542 35.0535 3.54676 35.1815 4.04809C35.3095 4.53876 35.5068 5.00276 35.7735 5.44009C36.0402 5.87742 36.3815 6.27209 36.7975 6.62409C37.2135 6.97609 37.7148 7.25876 38.3015 7.47209L37.1335 9.13609C36.2588 8.78409 35.5335 8.27742 34.9575 7.61609C34.3922 6.95476 33.9708 6.18676 33.6935 5.31209C33.4162 4.43742 33.2775 3.51476 33.2775 2.54409V0.832089ZM39.7095 8.96454e-05H41.8535V10.9601H39.7095V8.96454e-05ZM32.0455 12.8481H42.1735V14.5601H32.0455V12.8481ZM32.0455 9.96809H34.1735V13.9361H32.0455V9.96809Z" fill="#09090B"/>
</svg>
